<svg width="55" height="40" viewBox="0 0 55 40" fill="none" xmlns="http://www.w3.org/2000/svg">
<path d="M32.5 14.75V10.5C33.875 9.91667 35.2812 9.47917 36.7188 9.1875C38.1562 8.89583 39.6667 8.75 41.25 8.75C42.3333 8.75 43.3958 8.83333 44.4375 9C45.4792 9.16667 46.5 9.375 47.5 9.625V13.625C46.5 13.25 45.4896 12.9688 44.4688 12.7812C43.4479 12.5938 42.375 12.5 41.25 12.5C39.6667 12.5 38.1458 12.6979 36.6875 13.0938C35.2292 13.4896 33.8333 14.0417 32.5 14.75ZM32.5 28.5V24.25C33.875 23.6667 35.2812 23.2292 36.7188 22.9375C38.1562 22.6458 39.6667 22.5 41.25 22.5C42.3333 22.5 43.3958 22.5833 44.4375 22.75C45.4792 22.9167 46.5 23.125 47.5 23.375V27.375C46.5 27 45.4896 26.7188 44.4688 26.5312C43.4479 26.3438 42.375 26.25 41.25 26.25C39.6667 26.25 38.1458 26.4375 36.6875 26.8125C35.2292 27.1875 33.8333 27.75 32.5 28.5ZM32.5 21.625V17.375C33.875 16.7917 35.2812 16.3542 36.7188 16.0625C38.1562 15.7708 39.6667 15.625 41.25 15.625C42.3333 15.625 43.3958 15.7083 44.4375 15.875C45.4792 16.0417 46.5 16.25 47.5 16.5V20.5C46.5 20.125 45.4896 19.8438 44.4688 19.6562C43.4479 19.4688 42.375 19.375 41.25 19.375C39.6667 19.375 38.1458 19.5729 36.6875 19.9688C35.2292 20.3646 33.8333 20.9167 32.5 21.625ZM13.75 30C15.7083 30 17.6146 30.2188 19.4688 30.6562C21.3229 31.0938 23.1667 31.75 25 32.625V8C23.2917 7 21.4792 6.25 19.5625 5.75C17.6458 5.25 15.7083 5 13.75 5C12.25 5 10.7604 5.14583 9.28125 5.4375C7.80208 5.72917 6.375 6.16667 5 6.75V31.5C6.45833 31 7.90625 30.625 9.34375 30.375C10.7812 30.125 12.25 30 13.75 30ZM30 32.625C31.8333 31.75 33.6771 31.0938 35.5312 30.6562C37.3854 30.2188 39.2917 30 41.25 30C42.75 30 44.2188 30.125 45.6562 30.375C47.0938 30.625 48.5417 31 50 31.5V6.75C48.625 6.16667 47.1979 5.72917 45.7188 5.4375C44.2396 5.14583 42.75 5 41.25 5C39.2917 5 37.3542 5.25 35.4375 5.75C33.5208 6.25 31.7083 7 30 8V32.625ZM27.5 40C25.5 38.4167 23.3333 37.1875 21 36.3125C18.6667 35.4375 16.25 35 13.75 35C12 35 10.2812 35.2292 8.59375 35.6875C6.90625 36.1458 5.29167 36.7917 3.75 37.625C2.875 38.0833 2.03125 38.0625 1.21875 37.5625C0.40625 37.0625 0 36.3333 0 35.375V5.25C0 4.79167 0.114583 4.35417 0.34375 3.9375C0.572917 3.52083 0.916667 3.20833 1.375 3C3.29167 2 5.29167 1.25 7.375 0.75C9.45833 0.25 11.5833 0 13.75 0C16.1667 0 18.5312 0.3125 20.8438 0.9375C23.1562 1.5625 25.375 2.5 27.5 3.75C29.625 2.5 31.8438 1.5625 34.1562 0.9375C36.4688 0.3125 38.8333 0 41.25 0C43.4167 0 45.5417 0.25 47.625 0.75C49.7083 1.25 51.7083 2 53.625 3C54.0833 3.20833 54.4271 3.52083 54.6562 3.9375C54.8854 4.35417 55 4.79167 55 5.25V35.375C55 36.3333 54.5938 37.0625 53.7812 37.5625C52.9688 38.0625 52.125 38.0833 51.25 37.625C49.7083 36.7917 48.0938 36.1458 46.4062 35.6875C44.7188 35.2292 43 35 41.25 35C38.75 35 36.3333 35.4375 34 36.3125C31.6667 37.1875 29.5 38.4167 27.5 40Z" fill="#F1F5F9"/>
</svg>
