<svg width="19" height="13" viewBox="0 0 19 13" fill="none" xmlns="http://www.w3.org/2000/svg">
<path d="M9.5625 9.85417L16.5417 2.875L15.4583 1.79167L8.47917 8.77083L9.5625 9.85417ZM4.125 11.6667C2.73611 11.5972 1.70139 11.3056 1.02083 10.7917C0.340278 10.2778 0 9.53472 0 8.5625C0 7.65972 0.371528 6.92708 1.11458 6.36458C1.85764 5.80208 2.88889 5.46528 4.20833 5.35417C4.75 5.3125 5.15625 5.22569 5.42708 5.09375C5.69792 4.96181 5.83333 4.77778 5.83333 4.54167C5.83333 4.18056 5.62847 3.90972 5.21875 3.72917C4.80903 3.54861 4.13194 3.41667 3.1875 3.33333L3.33333 1.66667C4.76389 1.77778 5.81597 2.06597 6.48958 2.53125C7.16319 2.99653 7.5 3.66667 7.5 4.54167C7.5 5.27778 7.23264 5.85417 6.69792 6.27083C6.16319 6.6875 5.375 6.9375 4.33333 7.02083C3.44444 7.09028 2.77778 7.25347 2.33333 7.51042C1.88889 7.76736 1.66667 8.11806 1.66667 8.5625C1.66667 9.04861 1.86111 9.39931 2.25 9.61458C2.63889 9.82986 3.29167 9.95833 4.20833 10L4.125 11.6667ZM9.95833 11.8125L6.52083 8.375L14.4792 0.416667C14.7569 0.138889 15.0868 0 15.4688 0C15.8507 0 16.1806 0.138889 16.4583 0.416667L17.9167 1.875C18.1944 2.15278 18.3333 2.48264 18.3333 2.86458C18.3333 3.24653 18.1944 3.57639 17.9167 3.85417L9.95833 11.8125ZM6.64583 12.5C6.40972 12.5556 6.20139 12.4931 6.02083 12.3125C5.84028 12.1319 5.77778 11.9236 5.83333 11.6875L6.52083 8.375L9.95833 11.8125L6.64583 12.5Z" fill="#94A3B8"/>
</svg>
