<svg width="320" height="320" viewBox="0 0 320 320" fill="none" xmlns="http://www.w3.org/2000/svg">
<g filter="url(#filter0_f_35_520)">
<rect x="64" y="64" width="192" height="192" rx="64" fill="#10B981" fill-opacity="0.2"/>
</g>
<g filter="url(#filter1_d_35_520)">
<rect x="96" y="96" width="128" height="128" rx="64" fill="#0A2E15" shape-rendering="crispEdges"/>
<rect x="96.5" y="96.5" width="127" height="127" rx="63.5" stroke="#10B981" stroke-opacity="0.3" shape-rendering="crispEdges"/>
<path d="M166.282 152.423V149.32C168.073 148.415 169.99 147.735 172.035 147.282C174.08 146.829 176.179 146.603 178.333 146.603C179.564 146.603 180.746 146.682 181.878 146.84C183.011 146.998 184.18 147.222 185.385 147.513V150.538C184.222 150.167 183.089 149.909 181.984 149.766C180.879 149.623 179.662 149.551 178.333 149.551C176.179 149.551 174.077 149.794 172.026 150.279C169.974 150.764 168.06 151.479 166.282 152.423ZM166.282 170.628V167.397C167.987 166.491 169.894 165.812 172.003 165.359C174.112 164.906 176.222 164.679 178.333 164.679C179.564 164.679 180.746 164.759 181.878 164.917C183.011 165.075 184.18 165.299 185.385 165.59V168.615C184.222 168.244 183.089 167.986 181.984 167.843C180.879 167.7 179.662 167.628 178.333 167.628C176.179 167.628 174.077 167.889 172.026 168.41C169.974 168.932 168.06 169.671 166.282 170.628ZM166.282 161.59V158.359C168.073 157.453 169.99 156.773 172.035 156.32C174.08 155.868 176.179 155.641 178.333 155.641C179.564 155.641 180.746 155.72 181.878 155.878C183.011 156.036 184.18 156.261 185.385 156.551V159.577C184.222 159.205 183.089 158.948 181.984 158.804C180.879 158.661 179.662 158.59 178.333 158.59C176.179 158.59 174.077 158.854 172.026 159.381C169.974 159.909 168.06 160.645 166.282 161.59ZM141.667 173.91C144.577 173.91 147.407 174.245 150.157 174.913C152.907 175.582 155.632 176.671 158.333 178.179V145.474C155.927 143.756 153.276 142.468 150.378 141.609C147.481 140.75 144.577 140.321 141.667 140.321C139.667 140.321 137.916 140.44 136.413 140.679C134.911 140.919 133.244 141.363 131.41 142.013C130.897 142.184 130.534 142.429 130.321 142.75C130.107 143.071 130 143.423 130 143.808V173.859C130 174.457 130.214 174.895 130.641 175.173C131.068 175.451 131.538 175.483 132.051 175.269C133.269 174.859 134.676 174.53 136.272 174.282C137.869 174.034 139.667 173.91 141.667 173.91ZM161.667 178.179C164.368 176.671 167.093 175.582 169.843 174.913C172.593 174.245 175.423 173.91 178.333 173.91C180.333 173.91 182.131 174.034 183.728 174.282C185.324 174.53 186.731 174.859 187.949 175.269C188.462 175.483 188.932 175.451 189.359 175.173C189.786 174.895 190 174.457 190 173.859V143.808C190 143.423 189.893 143.081 189.68 142.782C189.466 142.483 189.103 142.226 188.59 142.013C186.756 141.363 185.089 140.919 183.587 140.679C182.084 140.44 180.333 140.321 178.333 140.321C175.423 140.321 172.519 140.75 169.622 141.609C166.724 142.468 164.073 143.756 161.667 145.474V178.179ZM160 183.013C157.291 181.158 154.38 179.733 151.269 178.737C148.158 177.741 144.957 177.244 141.667 177.244C139.932 177.244 138.228 177.389 136.554 177.68C134.881 177.97 133.252 178.436 131.667 179.077C130.457 179.56 129.322 179.415 128.26 178.641C127.198 177.868 126.667 176.799 126.667 175.436V143.218C126.667 142.393 126.884 141.628 127.317 140.923C127.751 140.218 128.359 139.726 129.141 139.449C131.098 138.585 133.135 137.959 135.25 137.57C137.365 137.182 139.504 136.987 141.667 136.987C144.932 136.987 148.116 137.457 151.221 138.397C154.326 139.338 157.252 140.705 160 142.5C162.748 140.705 165.674 139.338 168.779 138.397C171.884 137.457 175.068 136.987 178.333 136.987C180.496 136.987 182.635 137.182 184.75 137.57C186.865 137.959 188.902 138.585 190.859 139.449C191.641 139.726 192.249 140.218 192.683 140.923C193.116 141.628 193.333 142.393 193.333 143.218V175.436C193.333 176.799 192.76 177.846 191.612 178.577C190.465 179.308 189.244 179.432 187.949 178.949C186.406 178.35 184.83 177.917 183.221 177.647C181.612 177.378 179.983 177.244 178.333 177.244C175.043 177.244 171.842 177.741 168.731 178.737C165.62 179.733 162.709 181.158 160 183.013Z" fill="#FFCF38"/>
</g>
<defs>
<filter id="filter0_f_35_520" x="0" y="0" width="320" height="320" filterUnits="userSpaceOnUse" color-interpolation-filters="sRGB">
<feFlood flood-opacity="0" result="BackgroundImageFix"/>
<feBlend mode="normal" in="SourceGraphic" in2="BackgroundImageFix" result="shape"/>
<feGaussianBlur stdDeviation="32" result="effect1_foregroundBlur_35_520"/>
</filter>
<filter id="filter1_d_35_520" x="46" y="46" width="228" height="228" filterUnits="userSpaceOnUse" color-interpolation-filters="sRGB">
<feFlood flood-opacity="0" result="BackgroundImageFix"/>
<feColorMatrix in="SourceAlpha" type="matrix" values="0 0 0 0 0 0 0 0 0 0 0 0 0 0 0 0 0 0 127 0" result="hardAlpha"/>
<feOffset/>
<feGaussianBlur stdDeviation="25"/>
<feComposite in2="hardAlpha" operator="out"/>
<feColorMatrix type="matrix" values="0 0 0 0 0.0627451 0 0 0 0 0.72549 0 0 0 0 0.505882 0 0 0 0.3 0"/>
<feBlend mode="normal" in2="BackgroundImageFix" result="effect1_dropShadow_35_520"/>
<feBlend mode="normal" in="SourceGraphic" in2="effect1_dropShadow_35_520" result="shape"/>
</filter>
</defs>
</svg>
