<svg width="440" height="638" viewBox="0 0 440 638" fill="none" xmlns="http://www.w3.org/2000/svg">
<path d="M157.984 307.75C157.901 311.625 157.068 314.958 154.984 317.792L157.068 319.875L153.609 323.375L151.401 321.167C149.026 322.667 146.234 323.375 143.443 323.375C139.151 323.375 134.984 321.708 132.401 318.458C129.984 315.542 128.901 311.75 128.901 307.75C128.901 303.75 129.984 299.917 132.401 297C135.026 293.708 139.109 292.125 143.443 292.125C147.776 292.125 151.818 293.75 154.484 297C157.026 300.083 157.901 303.75 157.984 307.75ZM143.443 318.042C144.818 318.083 146.193 317.792 147.401 317.167L144.859 314.667L148.359 311.167L150.818 313.625C151.693 311.875 151.984 309.792 151.984 307.75C151.984 305.125 151.484 302.417 149.984 300.458C148.484 298.458 146.026 297.417 143.443 297.458C140.859 297.417 138.359 298.458 136.901 300.458C135.359 302.417 134.901 305.125 134.859 307.75C134.901 310.375 135.359 313.042 136.901 315.042C138.359 317.042 140.859 318.083 143.443 318.042ZM194.606 292.75V311.5C194.606 314.292 193.69 316.917 191.94 319.083C189.69 321.958 186.19 323.375 182.44 323.375C178.69 323.375 175.106 321.917 172.856 319.083C171.19 316.958 170.19 314.167 170.19 311.5V292.792L175.94 292.75V311.417C175.94 312.917 176.398 314.333 177.231 315.542C178.44 317.125 180.44 318.042 182.44 318.042C184.398 318.042 186.356 317.125 187.565 315.5C188.481 314.292 188.856 312.958 188.856 311.417V292.75H194.606ZM230.233 308.542C229.358 309.75 228.15 310.792 226.733 311.458L232.233 322.75H225.817L220.858 312.542H214.15V322.75H208.483V292.75H222.192C223.233 292.75 224.275 292.917 225.233 293.208C227.233 293.833 229.025 295.083 230.233 296.792C231.483 298.458 232.192 300.583 232.233 302.667C232.275 304.75 231.483 306.875 230.233 308.542ZM214.15 298.083V307.25H222.15C223.275 307.25 224.692 306.583 225.567 305.417C226.15 304.625 226.525 303.667 226.483 302.667C226.442 301.583 226.108 300.5 225.4 299.708C224.608 298.792 223.317 298.083 222.15 298.083H214.15ZM261.095 322.75L259.636 318.083H247.386L245.97 322.75H240.136L249.303 292.75H257.761L266.928 322.75H261.095ZM249.011 312.75H258.011L253.47 298.083L249.011 312.75ZM282.688 292.75L296.48 312.333V292.75H302.23V322.75H297.23L283.48 303.167V322.75H277.688V292.75H282.688ZM79.4563 344.75H82.8563V362.75H79.4563V344.75ZM96.7969 344.75L105.072 356.5V344.75H108.522V362.75H105.522L97.2719 351V362.75H93.7969V344.75H96.7969ZM132.723 344.75V348.15H127.048V362.75H123.648V348.15H117.973V344.75H132.723ZM153.931 348.15H145.581V352.05H152.431V355.45H145.581V359.35H153.931V362.75H142.181V344.75H153.931V348.15ZM177.689 354.225C177.164 354.95 176.439 355.575 175.589 355.975L178.889 362.75H175.039L172.064 356.625H168.039V362.75H164.639V344.75H172.864C173.489 344.75 174.114 344.85 174.689 345.025C175.889 345.4 176.964 346.15 177.689 347.175C178.439 348.175 178.864 349.45 178.889 350.7C178.914 351.95 178.439 353.225 177.689 354.225ZM168.039 347.95V353.45H172.839C173.514 353.45 174.364 353.05 174.889 352.35C175.239 351.875 175.464 351.3 175.439 350.7C175.414 350.05 175.214 349.4 174.789 348.925C174.314 348.375 173.539 347.95 172.839 347.95H168.039ZM192.136 344.75L200.411 356.5V344.75H203.861V362.75H200.861L192.611 351V362.75H189.136V344.75H192.136ZM225.763 362.75L224.888 359.95H217.538L216.688 362.75H213.188L218.688 344.75H223.763L229.263 362.75H225.763ZM218.513 356.75H223.913L221.188 347.95L218.513 356.75ZM251.106 344.75V348.15H245.431V362.75H242.031V348.15H236.356V344.75H251.106ZM260.314 344.75H263.714V362.75H260.314V344.75ZM282.38 363.125C279.805 363.125 277.305 362.125 275.755 360.175C274.305 358.425 273.655 356.15 273.655 353.75C273.655 351.35 274.305 349.05 275.755 347.3C277.33 345.325 279.78 344.375 282.38 344.375C284.98 344.375 287.405 345.35 289.005 347.3C290.53 349.15 291.055 351.35 291.105 353.75C291.055 356.25 290.48 358.375 289.005 360.175C287.355 362.175 284.88 363.125 282.38 363.125ZM282.38 359.925C283.93 359.95 285.405 359.325 286.305 358.125C287.205 356.925 287.505 355.325 287.505 353.75C287.505 352.175 287.205 350.55 286.305 349.375C285.405 348.175 283.93 347.55 282.38 347.575C280.83 347.55 279.33 348.175 278.455 349.375C277.53 350.55 277.255 352.175 277.23 353.75C277.255 355.325 277.53 356.925 278.455 358.125C279.33 359.325 280.83 359.95 282.38 359.925ZM304.308 344.75L312.583 356.5V344.75H316.033V362.75H313.033L304.783 351V362.75H301.308V344.75H304.308ZM337.934 362.75L337.059 359.95H329.709L328.859 362.75H325.359L330.859 344.75H335.934L341.434 362.75H337.934ZM330.684 356.75H336.084L333.359 347.95L330.684 356.75ZM354.17 344.75V359.35H361.92V362.75H350.77V344.75H354.17Z" fill="#FFCF38"/>
<path d="M165.066 421.87C164.202 421.87 163.434 421.75 162.762 421.51C162.106 421.254 161.578 420.83 161.178 420.238C160.794 419.63 160.578 418.79 160.53 417.718L160.146 409.366H162.09L162.474 417.286C162.522 418.038 162.658 418.606 162.882 418.99C163.106 419.358 163.418 419.606 163.818 419.734C164.234 419.846 164.73 419.902 165.306 419.902C165.642 419.902 165.882 419.998 166.026 420.19C166.186 420.366 166.266 420.582 166.266 420.838C166.266 421.094 166.154 421.334 165.93 421.558C165.706 421.766 165.418 421.87 165.066 421.87ZM161.442 419.23C160.53 419.518 159.642 419.662 158.778 419.662C157.914 419.662 157.13 419.534 156.426 419.278C155.722 419.022 155.162 418.654 154.746 418.174C154.33 417.678 154.122 417.086 154.122 416.398C154.122 415.726 154.29 415.094 154.626 414.502C154.978 413.91 155.45 413.382 156.042 412.918C156.65 412.454 157.346 412.07 158.13 411.766C158.93 411.446 159.778 411.23 160.674 411.118L161.01 413.134C160.21 413.166 159.498 413.278 158.874 413.47C158.266 413.646 157.746 413.878 157.314 414.166C156.898 414.454 156.578 414.766 156.354 415.102C156.13 415.438 156.018 415.766 156.018 416.086C156.018 416.438 156.146 416.726 156.402 416.95C156.658 417.174 156.986 417.35 157.386 417.478C157.786 417.59 158.226 417.662 158.706 417.694C159.186 417.71 159.65 417.694 160.098 417.646C160.546 417.582 160.93 417.494 161.25 417.382L161.442 419.23ZM160.938 406.606C160.602 406.606 160.314 406.494 160.074 406.27C159.85 406.03 159.738 405.75 159.738 405.43C159.738 405.11 159.85 404.83 160.074 404.59C160.314 404.35 160.602 404.23 160.938 404.23C161.258 404.23 161.53 404.35 161.754 404.59C161.994 404.83 162.114 405.11 162.114 405.43C162.114 405.75 161.994 406.03 161.754 406.27C161.53 406.494 161.258 406.606 160.938 406.606ZM157.65 406.606C157.314 406.606 157.026 406.494 156.786 406.27C156.562 406.03 156.45 405.75 156.45 405.43C156.45 405.11 156.562 404.83 156.786 404.59C157.026 404.35 157.314 404.23 157.65 404.23C157.97 404.23 158.242 404.35 158.466 404.59C158.706 404.83 158.826 405.11 158.826 405.43C158.826 405.75 158.706 406.03 158.466 406.27C158.242 406.494 157.97 406.606 157.65 406.606ZM165.074 421.87L165.314 419.902C166.114 419.902 166.738 419.846 167.186 419.734C167.634 419.606 167.97 419.374 168.194 419.038C168.434 418.686 168.626 418.182 168.77 417.526C168.914 416.87 169.09 416.014 169.298 414.958L171.17 415.318C171.106 415.606 171.034 415.926 170.954 416.278C170.874 416.63 170.802 416.982 170.738 417.334C170.69 417.67 170.666 417.966 170.666 418.222C170.666 418.462 170.682 418.686 170.714 418.894C170.746 419.102 170.866 419.278 171.074 419.422C171.282 419.566 171.634 419.686 172.13 419.782C172.626 419.862 173.338 419.902 174.266 419.902C174.602 419.902 174.842 419.998 174.986 420.19C175.146 420.366 175.226 420.582 175.226 420.838C175.226 421.094 175.114 421.334 174.89 421.558C174.666 421.766 174.378 421.87 174.026 421.87C173.05 421.87 172.274 421.822 171.698 421.726C171.122 421.614 170.682 421.454 170.378 421.246C170.09 421.038 169.882 420.782 169.754 420.478C169.642 420.158 169.554 419.79 169.49 419.374L170.21 419.422C169.954 419.934 169.674 420.35 169.37 420.67C169.082 420.99 168.746 421.238 168.362 421.414C167.978 421.59 167.514 421.71 166.97 421.774C166.442 421.838 165.81 421.87 165.074 421.87ZM171.122 426.406C170.786 426.406 170.498 426.286 170.258 426.046C170.034 425.822 169.922 425.55 169.922 425.23C169.922 424.91 170.034 424.63 170.258 424.39C170.498 424.15 170.786 424.03 171.122 424.03C171.442 424.03 171.714 424.15 171.938 424.39C172.178 424.63 172.298 424.91 172.298 425.23C172.298 425.55 172.178 425.822 171.938 426.046C171.714 426.286 171.442 426.406 171.122 426.406ZM167.834 426.406C167.498 426.406 167.21 426.286 166.97 426.046C166.746 425.822 166.634 425.55 166.634 425.23C166.634 424.91 166.746 424.63 166.97 424.39C167.21 424.15 167.498 424.03 167.834 424.03C168.154 424.03 168.426 424.15 168.65 424.39C168.89 424.63 169.01 424.91 169.01 425.23C169.01 425.55 168.89 425.822 168.65 426.046C168.426 426.286 168.154 426.406 167.834 426.406ZM174.027 421.87L174.267 419.902C174.715 419.902 175.067 419.806 175.323 419.614C175.595 419.422 175.851 419.102 176.091 418.654C176.347 418.206 176.667 417.606 177.051 416.854C177.435 416.086 177.819 415.462 178.203 414.982C178.603 414.486 178.987 414.102 179.355 413.83C179.739 413.542 180.099 413.342 180.435 413.23C180.771 413.118 181.083 413.062 181.371 413.062C181.899 413.062 182.371 413.182 182.787 413.422C183.203 413.646 183.595 414.038 183.963 414.598C184.331 415.142 184.707 415.894 185.091 416.854C185.459 417.734 185.787 418.398 186.075 418.846C186.379 419.278 186.691 419.566 187.011 419.71C187.347 419.838 187.723 419.902 188.139 419.902C188.475 419.902 188.715 419.998 188.859 420.19C189.019 420.366 189.099 420.582 189.099 420.838C189.099 421.094 188.987 421.334 188.763 421.558C188.539 421.766 188.251 421.87 187.899 421.87C187.275 421.87 186.699 421.766 186.171 421.558C185.659 421.35 185.227 421.022 184.875 420.574L185.211 420.07C185.035 420.566 184.795 420.974 184.491 421.294C184.203 421.598 183.875 421.822 183.507 421.966C183.139 422.126 182.747 422.206 182.331 422.206C181.803 422.206 181.259 422.094 180.699 421.87C180.155 421.646 179.627 421.326 179.115 420.91C178.603 420.494 178.155 420.006 177.771 419.446C177.355 420.182 176.955 420.726 176.571 421.078C176.203 421.414 175.819 421.63 175.419 421.726C175.019 421.822 174.555 421.87 174.027 421.87ZM178.683 417.622C178.955 418.07 179.243 418.462 179.547 418.798C179.867 419.134 180.187 419.414 180.507 419.638C180.827 419.846 181.139 420.006 181.443 420.118C181.763 420.214 182.051 420.262 182.307 420.262C182.867 420.262 183.275 420.062 183.531 419.662C183.803 419.262 183.795 418.702 183.507 417.982C183.363 417.614 183.211 417.254 183.051 416.902C182.907 416.55 182.747 416.23 182.571 415.942C182.395 415.638 182.195 415.406 181.971 415.246C181.747 415.07 181.499 414.982 181.227 414.982C180.987 414.982 180.731 415.062 180.459 415.222C180.203 415.382 179.923 415.654 179.619 416.038C179.331 416.422 179.019 416.95 178.683 417.622ZM187.902 421.87L188.118 419.902C189.03 419.902 189.67 419.814 190.038 419.638C190.406 419.462 190.614 419.15 190.662 418.702C190.726 418.254 190.742 417.63 190.71 416.83L190.254 404.614H192.198L192.678 416.614C192.71 417.462 192.678 418.214 192.582 418.87C192.502 419.526 192.294 420.078 191.958 420.526C191.638 420.974 191.15 421.31 190.494 421.534C189.854 421.758 188.99 421.87 187.902 421.87ZM201.121 421.87C199.841 421.87 198.857 421.726 198.169 421.438C197.497 421.15 197.033 420.702 196.777 420.094C196.521 419.486 196.377 418.702 196.345 417.742L195.865 404.614H197.833L198.313 416.974C198.345 417.758 198.417 418.366 198.529 418.798C198.657 419.214 198.929 419.502 199.345 419.662C199.777 419.822 200.449 419.902 201.361 419.902C201.697 419.902 201.937 419.998 202.081 420.19C202.241 420.366 202.321 420.582 202.321 420.838C202.321 421.094 202.209 421.334 201.985 421.558C201.761 421.766 201.473 421.87 201.121 421.87ZM201.121 421.87L201.361 419.902C202.321 419.902 203.225 419.814 204.073 419.638C204.921 419.446 205.697 419.198 206.401 418.894C207.121 418.574 207.737 418.214 208.249 417.814C208.761 417.398 209.153 416.974 209.425 416.542C209.713 416.094 209.857 415.654 209.857 415.222C209.857 415.014 209.785 414.806 209.641 414.598C209.497 414.374 209.249 414.19 208.897 414.046C208.561 413.902 208.105 413.83 207.529 413.83C207.177 413.83 206.785 413.878 206.353 413.974C205.921 414.07 205.505 414.206 205.105 414.382C204.721 414.542 204.401 414.726 204.145 414.934C204.577 415.286 204.977 415.63 205.345 415.966C205.729 416.302 206.121 416.67 206.521 417.07C206.921 417.454 207.353 417.894 207.817 418.39C208.185 418.662 208.593 418.894 209.041 419.086C209.505 419.278 210.001 419.438 210.529 419.566C211.073 419.678 211.625 419.766 212.185 419.83C212.745 419.878 213.305 419.902 213.865 419.902C214.201 419.902 214.441 419.998 214.585 420.19C214.745 420.366 214.825 420.582 214.825 420.838C214.825 421.094 214.713 421.334 214.489 421.558C214.265 421.766 213.977 421.87 213.625 421.87C212.745 421.87 211.841 421.79 210.913 421.63C210.001 421.454 209.145 421.198 208.345 420.862C207.545 420.51 206.865 420.07 206.305 419.542C206.033 419.19 205.729 418.838 205.393 418.486C205.057 418.134 204.689 417.782 204.289 417.43C203.905 417.062 203.489 416.718 203.041 416.398C202.945 416.318 202.849 416.174 202.753 415.966C202.657 415.758 202.577 415.542 202.513 415.318C202.449 415.094 202.417 414.926 202.417 414.814C202.417 414.574 202.569 414.286 202.873 413.95C203.177 413.614 203.585 413.294 204.097 412.99C204.609 412.67 205.193 412.406 205.849 412.198C206.505 411.99 207.185 411.886 207.889 411.886C208.801 411.886 209.537 412.022 210.097 412.294C210.673 412.566 211.089 412.918 211.345 413.35C211.617 413.766 211.753 414.214 211.753 414.694C211.753 415.398 211.577 416.102 211.225 416.806C210.873 417.494 210.369 418.142 209.713 418.75C209.057 419.358 208.289 419.902 207.409 420.382C206.529 420.846 205.553 421.214 204.481 421.486C203.425 421.742 202.305 421.87 201.121 421.87ZM213.637 421.87L213.853 419.902C214.765 419.902 215.405 419.814 215.773 419.638C216.141 419.462 216.349 419.15 216.397 418.702C216.461 418.254 216.477 417.63 216.445 416.83L215.989 404.614H217.933L218.413 416.614C218.445 417.462 218.413 418.214 218.317 418.87C218.237 419.526 218.029 420.078 217.693 420.526C217.373 420.974 216.885 421.31 216.229 421.534C215.589 421.758 214.725 421.87 213.637 421.87ZM222.079 421.75L221.599 404.614H223.543L224.023 421.75H222.079ZM231.888 421.774C231.888 421.39 231.92 420.982 231.984 420.55C232.064 420.102 232.176 419.63 232.32 419.134C232.48 418.622 232.672 418.086 232.896 417.526L234.624 418.198C234.464 418.646 234.32 419.07 234.192 419.47C234.08 419.87 233.992 420.246 233.928 420.598C233.88 420.95 233.856 421.286 233.856 421.606C233.856 422.438 234.072 423.126 234.504 423.67C234.936 424.214 235.528 424.622 236.28 424.894C237.032 425.166 237.88 425.302 238.824 425.302C239.896 425.302 240.792 425.158 241.512 424.87C242.248 424.582 242.832 424.198 243.264 423.718C243.696 423.254 244 422.734 244.176 422.158C244.368 421.582 244.464 421.014 244.464 420.454C244.464 419.846 244.344 419.11 244.104 418.246C243.88 417.382 243.456 416.31 242.832 415.03L244.632 414.118C244.952 414.726 245.24 415.366 245.496 416.038C245.768 416.694 245.984 417.374 246.144 418.078C246.32 418.766 246.408 419.47 246.408 420.19C246.408 420.814 246.328 421.454 246.168 422.11C246.024 422.766 245.776 423.398 245.424 424.006C245.072 424.63 244.6 425.182 244.008 425.662C243.432 426.158 242.712 426.55 241.848 426.838C241 427.126 239.984 427.27 238.8 427.27C237.872 427.27 236.984 427.158 236.136 426.934C235.304 426.726 234.568 426.398 233.928 425.95C233.304 425.502 232.808 424.934 232.44 424.246C232.072 423.558 231.888 422.734 231.888 421.774ZM239.136 412.198C238.8 412.198 238.512 412.086 238.272 411.862C238.048 411.622 237.936 411.342 237.936 411.022C237.936 410.702 238.048 410.422 238.272 410.182C238.512 409.942 238.8 409.822 239.136 409.822C239.456 409.822 239.728 409.942 239.952 410.182C240.192 410.422 240.312 410.702 240.312 411.022C240.312 411.342 240.192 411.622 239.952 411.862C239.728 412.086 239.456 412.198 239.136 412.198ZM249.734 421.75L249.326 406.294H251.27L251.678 421.75H249.734ZM251.894 403.966C251.414 403.966 250.982 403.886 250.598 403.726C250.214 403.55 249.862 403.382 249.542 403.222C249.222 403.062 248.926 402.982 248.654 402.982C248.366 402.982 248.102 403.054 247.862 403.198C247.638 403.342 247.398 403.542 247.142 403.798L246.23 403.03C246.598 402.566 246.982 402.206 247.382 401.95C247.782 401.678 248.206 401.542 248.654 401.542C249.054 401.542 249.422 401.622 249.758 401.782C250.094 401.942 250.43 402.102 250.766 402.262C251.118 402.422 251.494 402.502 251.894 402.502C252.15 402.502 252.39 402.462 252.614 402.382C252.838 402.286 253.11 402.142 253.43 401.95L254.126 402.934C253.614 403.382 253.174 403.67 252.806 403.798C252.454 403.91 252.15 403.966 251.894 403.966ZM253.342 427.318L252.646 425.494C253.814 425.11 254.782 424.67 255.55 424.174C256.334 423.678 256.95 423.15 257.398 422.59C257.862 422.03 258.19 421.462 258.382 420.886C258.574 420.294 258.67 419.726 258.67 419.182C258.67 418.398 258.494 417.606 258.142 416.806C257.806 415.99 257.43 415.222 257.014 414.502L258.766 413.614C259.07 414.174 259.334 414.726 259.558 415.27C259.798 415.814 260.006 416.326 260.182 416.806C260.374 417.286 260.526 417.726 260.638 418.126C260.862 418.814 261.15 419.286 261.502 419.542C261.87 419.782 262.366 419.902 262.99 419.902C263.326 419.902 263.566 419.998 263.71 420.19C263.87 420.366 263.95 420.582 263.95 420.838C263.95 421.094 263.838 421.334 263.614 421.558C263.39 421.766 263.102 421.87 262.75 421.87C262.046 421.87 261.47 421.75 261.022 421.51C260.59 421.254 260.262 420.926 260.038 420.526C259.814 420.11 259.662 419.678 259.582 419.23L260.35 419.662C260.35 420.718 260.11 421.678 259.63 422.542C259.166 423.422 258.566 424.182 257.83 424.822C257.094 425.478 256.326 426.014 255.526 426.43C254.726 426.846 253.998 427.142 253.342 427.318ZM262.762 421.87L263.002 419.902C263.402 419.902 263.81 419.902 264.226 419.902C264.658 419.886 265.082 419.862 265.498 419.83C265.914 419.798 266.314 419.758 266.698 419.71C267.082 419.662 267.426 419.59 267.73 419.494C268.29 419.318 268.802 419.086 269.266 418.798C269.746 418.51 270.13 418.158 270.418 417.742C270.722 417.326 270.874 416.846 270.874 416.302C270.874 415.934 270.786 415.558 270.61 415.174C270.434 414.774 270.194 414.438 269.89 414.166C269.586 413.894 269.234 413.758 268.834 413.758C268.45 413.758 268.09 413.886 267.754 414.142C267.434 414.398 267.17 414.734 266.962 415.15C266.77 415.55 266.674 415.966 266.674 416.398C266.674 416.91 266.802 417.374 267.058 417.79C267.33 418.19 267.658 418.534 268.042 418.822C268.426 419.11 268.81 419.342 269.194 419.518L266.914 420.19C266.658 419.998 266.354 419.734 266.002 419.398C265.666 419.046 265.362 418.614 265.09 418.102C264.834 417.59 264.706 417.006 264.706 416.35C264.706 415.71 264.818 415.118 265.042 414.574C265.282 414.014 265.594 413.526 265.978 413.11C266.378 412.694 266.826 412.374 267.322 412.15C267.834 411.91 268.362 411.79 268.906 411.79C269.69 411.79 270.378 412.006 270.97 412.438C271.562 412.87 272.018 413.422 272.338 414.094C272.674 414.75 272.842 415.438 272.842 416.158C272.842 416.846 272.714 417.47 272.458 418.03C272.202 418.574 271.85 419.062 271.402 419.494C270.97 419.926 270.458 420.294 269.866 420.598C269.29 420.902 268.674 421.15 268.018 421.342C267.65 421.454 267.25 421.542 266.818 421.606C266.402 421.67 265.962 421.718 265.498 421.75C265.034 421.798 264.57 421.83 264.106 421.846C263.642 421.862 263.194 421.87 262.762 421.87ZM274.642 421.87C273.842 421.87 273.01 421.822 272.146 421.726C271.298 421.614 270.49 421.478 269.722 421.318C268.97 421.142 268.346 420.95 267.85 420.742L269.506 419.542C269.986 419.606 270.554 419.67 271.21 419.734C271.866 419.782 272.522 419.822 273.178 419.854C273.834 419.886 274.402 419.902 274.882 419.902C275.218 419.902 275.458 419.998 275.602 420.19C275.762 420.366 275.842 420.582 275.842 420.838C275.842 421.094 275.73 421.334 275.506 421.558C275.282 421.766 274.994 421.87 274.642 421.87ZM270.37 409.318C270.034 409.318 269.746 409.206 269.506 408.982C269.282 408.742 269.17 408.462 269.17 408.142C269.17 407.822 269.282 407.542 269.506 407.302C269.746 407.062 270.034 406.942 270.37 406.942C270.69 406.942 270.962 407.062 271.186 407.302C271.426 407.542 271.546 407.822 271.546 408.142C271.546 408.462 271.426 408.742 271.186 408.982C270.962 409.206 270.69 409.318 270.37 409.318ZM267.082 409.318C266.746 409.318 266.458 409.206 266.218 408.982C265.994 408.742 265.882 408.462 265.882 408.142C265.882 407.822 265.994 407.542 266.218 407.302C266.458 407.062 266.746 406.942 267.082 406.942C267.402 406.942 267.674 407.062 267.898 407.302C268.138 407.542 268.258 407.822 268.258 408.142C268.258 408.462 268.138 408.742 267.898 408.982C267.674 409.206 267.402 409.318 267.082 409.318ZM274.645 421.87L274.861 419.902C275.773 419.902 276.413 419.814 276.781 419.638C277.149 419.462 277.357 419.15 277.405 418.702C277.469 418.254 277.485 417.63 277.453 416.83L276.997 404.614H278.941L279.421 416.614C279.453 417.462 279.421 418.214 279.325 418.87C279.245 419.526 279.037 420.078 278.701 420.526C278.381 420.974 277.893 421.31 277.237 421.534C276.597 421.758 275.733 421.87 274.645 421.87ZM283.087 421.75L282.607 404.614H284.551L285.031 421.75H283.087Z" fill="#FBCF39"/>
<path d="M68.55 600.5V599.333H72.05V600.5H68.55ZM72.4875 598.254L71.2625 597.029L72.0792 596.213L73.3042 597.438L72.4875 598.254ZM74.3833 597V593.5H75.55V597H74.3833ZM77.4458 598.254L76.6292 597.438L77.8542 596.213L78.6708 597.029L77.4458 598.254ZM77.8833 600.5V599.333H81.3833V600.5H77.8833ZM74.9667 601.667C74.4805 601.667 74.0673 601.497 73.7271 601.156C73.3868 600.816 73.2167 600.403 73.2167 599.917C73.2167 599.431 73.3868 599.017 73.7271 598.677C74.0673 598.337 74.4805 598.167 74.9667 598.167C75.4528 598.167 75.866 598.337 76.2062 598.677C76.5465 599.017 76.7167 599.431 76.7167 599.917C76.7167 600.403 76.5465 600.816 76.2062 601.156C75.866 601.497 75.4528 601.667 74.9667 601.667ZM77.8542 603.621L76.6292 602.396L77.4458 601.579L78.6708 602.804L77.8542 603.621ZM72.0792 603.621L71.2625 602.804L72.4875 601.579L73.3042 602.396L72.0792 603.621ZM74.3833 606.333V602.833H75.55V606.333H74.3833Z" fill="#10B981" fill-opacity="0.4"/>
<g filter="url(#filter0_f_35_509)">
<rect x="124" y="64" width="192" height="192" rx="64" fill="#10B981" fill-opacity="0.2"/>
</g>
<g filter="url(#filter1_d_35_509)">
<rect x="156" y="96" width="128" height="128" rx="64" fill="#0A2E15" shape-rendering="crispEdges"/>
<rect x="156.5" y="96.5" width="127" height="127" rx="63.5" stroke="#10B981" stroke-opacity="0.3" shape-rendering="crispEdges"/>
<path d="M226.282 152.423V149.32C228.073 148.415 229.99 147.735 232.035 147.282C234.08 146.829 236.179 146.603 238.333 146.603C239.564 146.603 240.746 146.682 241.878 146.84C243.011 146.998 244.18 147.222 245.385 147.513V150.538C244.222 150.167 243.089 149.909 241.984 149.766C240.879 149.623 239.662 149.551 238.333 149.551C236.179 149.551 234.077 149.794 232.026 150.279C229.974 150.764 228.06 151.479 226.282 152.423ZM226.282 170.628V167.397C227.987 166.491 229.894 165.812 232.003 165.359C234.112 164.906 236.222 164.679 238.333 164.679C239.564 164.679 240.746 164.759 241.878 164.917C243.011 165.075 244.18 165.299 245.385 165.59V168.615C244.222 168.244 243.089 167.986 241.984 167.843C240.879 167.7 239.662 167.628 238.333 167.628C236.179 167.628 234.077 167.889 232.026 168.41C229.974 168.932 228.06 169.671 226.282 170.628ZM226.282 161.59V158.359C228.073 157.453 229.99 156.773 232.035 156.32C234.08 155.868 236.179 155.641 238.333 155.641C239.564 155.641 240.746 155.72 241.878 155.878C243.011 156.036 244.18 156.261 245.385 156.551V159.577C244.222 159.205 243.089 158.948 241.984 158.804C240.879 158.661 239.662 158.59 238.333 158.59C236.179 158.59 234.077 158.854 232.026 159.381C229.974 159.909 228.06 160.645 226.282 161.59ZM201.667 173.91C204.577 173.91 207.407 174.245 210.157 174.913C212.907 175.582 215.632 176.671 218.333 178.179V145.474C215.927 143.756 213.276 142.468 210.378 141.609C207.481 140.75 204.577 140.321 201.667 140.321C199.667 140.321 197.916 140.44 196.413 140.679C194.911 140.919 193.244 141.363 191.41 142.013C190.897 142.184 190.534 142.429 190.321 142.75C190.107 143.071 190 143.423 190 143.808V173.859C190 174.457 190.214 174.895 190.641 175.173C191.068 175.451 191.538 175.483 192.051 175.269C193.269 174.859 194.676 174.53 196.272 174.282C197.869 174.034 199.667 173.91 201.667 173.91ZM221.667 178.179C224.368 176.671 227.093 175.582 229.843 174.913C232.593 174.245 235.423 173.91 238.333 173.91C240.333 173.91 242.131 174.034 243.728 174.282C245.324 174.53 246.731 174.859 247.949 175.269C248.462 175.483 248.932 175.451 249.359 175.173C249.786 174.895 250 174.457 250 173.859V143.808C250 143.423 249.893 143.081 249.68 142.782C249.466 142.483 249.103 142.226 248.59 142.013C246.756 141.363 245.089 140.919 243.587 140.679C242.084 140.44 240.333 140.321 238.333 140.321C235.423 140.321 232.519 140.75 229.622 141.609C226.724 142.468 224.073 143.756 221.667 145.474V178.179ZM220 183.013C217.291 181.158 214.38 179.733 211.269 178.737C208.158 177.741 204.957 177.244 201.667 177.244C199.932 177.244 198.228 177.389 196.554 177.68C194.881 177.97 193.252 178.436 191.667 179.077C190.457 179.56 189.322 179.415 188.26 178.641C187.198 177.868 186.667 176.799 186.667 175.436V143.218C186.667 142.393 186.884 141.628 187.317 140.923C187.751 140.218 188.359 139.726 189.141 139.449C191.098 138.585 193.135 137.959 195.25 137.57C197.365 137.182 199.504 136.987 201.667 136.987C204.932 136.987 208.116 137.457 211.221 138.397C214.326 139.338 217.252 140.705 220 142.5C222.748 140.705 225.674 139.338 228.779 138.397C231.884 137.457 235.068 136.987 238.333 136.987C240.496 136.987 242.635 137.182 244.75 137.57C246.865 137.959 248.902 138.585 250.859 139.449C251.641 139.726 252.249 140.218 252.683 140.923C253.116 141.628 253.333 142.393 253.333 143.218V175.436C253.333 176.799 252.76 177.846 251.612 178.577C250.465 179.308 249.244 179.432 247.949 178.949C246.406 178.35 244.83 177.917 243.221 177.647C241.612 177.378 239.983 177.244 238.333 177.244C235.043 177.244 231.842 177.741 228.731 178.737C225.62 179.733 222.709 181.158 220 183.013Z" fill="#FFCF38"/>
</g>
<defs>
<filter id="filter0_f_35_509" x="60" y="0" width="320" height="320" filterUnits="userSpaceOnUse" color-interpolation-filters="sRGB">
<feFlood flood-opacity="0" result="BackgroundImageFix"/>
<feBlend mode="normal" in="SourceGraphic" in2="BackgroundImageFix" result="shape"/>
<feGaussianBlur stdDeviation="32" result="effect1_foregroundBlur_35_509"/>
</filter>
<filter id="filter1_d_35_509" x="106" y="46" width="228" height="228" filterUnits="userSpaceOnUse" color-interpolation-filters="sRGB">
<feFlood flood-opacity="0" result="BackgroundImageFix"/>
<feColorMatrix in="SourceAlpha" type="matrix" values="0 0 0 0 0 0 0 0 0 0 0 0 0 0 0 0 0 0 127 0" result="hardAlpha"/>
<feOffset/>
<feGaussianBlur stdDeviation="25"/>
<feComposite in2="hardAlpha" operator="out"/>
<feColorMatrix type="matrix" values="0 0 0 0 0.0627451 0 0 0 0 0.72549 0 0 0 0 0.505882 0 0 0 0.3 0"/>
<feBlend mode="normal" in2="BackgroundImageFix" result="effect1_dropShadow_35_509"/>
<feBlend mode="normal" in="SourceGraphic" in2="effect1_dropShadow_35_509" result="shape"/>
</filter>
</defs>
</svg>
